<svg xmlns="http://www.w3.org/2000/svg" xmlns:xlink="http://www.w3.org/1999/xlink" width="500" zoomAndPan="magnify" viewBox="0 0 375 374.999991" height="500" preserveAspectRatio="xMidYMid meet" version="1.0"><defs><clipPath id="9951bbf690"><path d="M 86.636719 22 L 288.386719 22 L 288.386719 352 L 86.636719 352 Z M 86.636719 22 " clip-rule="nonzero"/></clipPath></defs><g clip-path="url(#9951bbf690)"><path fill="#fad333" d="M 147.53125 106.675781 L 147.53125 79.363281 C 147.53125 75.554688 149.773438 72.421875 153.355469 70.855469 L 154.695312 70.40625 L 273.128906 24.734375 L 276.261719 23.617188 C 279.171875 22.496094 282.085938 22.945312 284.546875 24.511719 C 287.007812 26.304688 288.351562 28.765625 288.351562 31.898438 L 288.351562 98.390625 C 288.351562 102.199219 286.113281 105.332031 282.53125 106.898438 L 281.1875 107.347656 L 114.847656 171.601562 C 111.265625 172.945312 109.027344 176.300781 109.027344 180.109375 L 109.027344 194.660156 C 109.027344 197.792969 110.367188 200.257812 112.832031 202.046875 C 115.292969 203.839844 118.429688 204.0625 121.113281 202.945312 L 272.90625 144.0625 L 276.039062 142.945312 C 278.949219 141.824219 281.859375 142.273438 284.324219 143.839844 C 286.785156 145.628906 288.128906 148.316406 288.128906 151.226562 L 288.128906 213.242188 C 288.128906 217.046875 285.890625 220.183594 282.308594 221.527344 L 280.964844 221.972656 L 231.933594 241.003906 C 228.351562 242.347656 226.113281 245.703125 226.113281 249.285156 L 226.113281 311.75 C 226.113281 315.332031 224.324219 318.242188 221.1875 319.808594 L 219.847656 320.480469 L 163.203125 349.359375 L 159.847656 350.925781 C 156.9375 352.496094 153.800781 352.269531 151.113281 350.480469 C 148.429688 348.6875 146.859375 346.003906 146.859375 342.867188 L 146.859375 238.316406 C 146.859375 234.511719 149.101562 231.375 152.683594 229.808594 L 157.160156 228.019531 C 160.070312 226.898438 162.980469 227.347656 165.441406 228.914062 C 167.90625 230.703125 169.25 233.167969 169.25 236.300781 L 169.25 305.929688 C 169.25 309.0625 170.816406 311.972656 173.503906 313.539062 C 176.1875 315.332031 179.324219 315.332031 182.234375 313.988281 L 198.351562 305.703125 C 201.488281 304.136719 203.277344 301.226562 203.277344 297.644531 L 203.277344 233.613281 C 203.277344 229.808594 205.515625 226.675781 209.097656 225.332031 L 210.441406 224.882812 L 259.472656 205.855469 C 263.054688 204.511719 265.292969 201.152344 265.292969 197.570312 L 265.292969 183.691406 C 265.292969 180.554688 263.949219 178.09375 261.488281 176.300781 C 259.023438 174.511719 256.113281 174.289062 253.203125 175.40625 L 162.085938 210.78125 L 117.085938 228.242188 L 101.414062 234.285156 L 98.28125 235.40625 C 95.367188 236.527344 92.457031 236.078125 89.996094 234.511719 C 87.535156 232.71875 86.191406 230.03125 86.191406 227.121094 L 86.191406 164.4375 C 86.191406 160.628906 88.429688 157.496094 92.011719 155.929688 L 93.355469 155.480469 L 119.324219 145.40625 L 193.875 116.527344 L 259.695312 91.003906 C 263.277344 89.660156 265.515625 86.304688 265.515625 82.496094 L 265.515625 63.914062 C 265.515625 60.78125 264.171875 58.316406 261.710938 56.527344 C 259.25 54.734375 256.339844 54.511719 253.425781 55.632812 L 175.519531 85.632812 C 171.9375 86.972656 169.695312 90.332031 169.695312 94.136719 L 169.695312 104.4375 C 169.695312 108.242188 167.457031 111.378906 163.875 112.945312 L 159.398438 114.734375 C 156.488281 115.855469 153.578125 115.40625 151.113281 113.839844 C 148.652344 112.050781 147.308594 109.585938 147.308594 106.453125 Z M 147.53125 106.675781 " fill-opacity="1" fill-rule="evenodd"/></g></svg>